<svg width="220" height="198" viewBox="0 0 220 198" fill="none" xmlns="http://www.w3.org/2000/svg">
<line y1="-1" x2="19.6327" y2="-1" transform="matrix(0.76403 -0.645181 0.465746 0.884918 140 140.667)" stroke="white" stroke-width="2"/>
<line y1="-1" x2="19.6327" y2="-1" transform="matrix(0.76403 -0.645181 0.465746 0.884918 140 147)" stroke="white" stroke-width="2"/>
<path d="M59.8804 134H73.4644L84.9364 69.2H71.3524L59.8804 134Z" fill="white"/>
<path d="M90.1721 134H103.804L108.796 105.92H134.812L129.868 134H143.5L154.924 69.2H141.292L136.444 96.56H110.428L115.276 69.2H101.644L90.1721 134Z" fill="#549CAA"/>
<line y1="-1" x2="20.2759" y2="-1" transform="matrix(0.887754 -0.460317 0.650791 0.759257 61 68.3333)" stroke="#549CAA" stroke-width="2"/>
<line y1="-1" x2="20.2759" y2="-1" transform="matrix(0.887754 -0.460317 0.650791 0.759257 61 73)" stroke="#549CAA" stroke-width="2"/>
</svg>
